# xmcd
#
# Track frame offsets: 
#        150
#        17075
#        37557
#        52097
#        64805
#        84105
#        107872
#        111562
#        123920
#        140245
#        158487
#        173457
#        184950
#
# Disc length: 2902 seconds
#
# Revision: 10
# Processed by: cddbd v1.5.2PL0 Copyright (c) Steve Scherf et al.
# Submitted via: ExactAudioCopy v0.95b3
#
DISCID=a70b540d
DTITLE=Shaver - Tramp On Your Street
DYEAR=1993
DGENRE=Country
TTITLE0=Heart Of Texas (feat. Waylon Jennings)
TTITLE1=Oklahoma Wind (feat. Waylon Jennings)
TTITLE2=Georgia On A Fast Train
TTITLE3=Live Forever (feat. Brother Phelps)
TTITLE4=If I Give My Soul (feat. Brother Phelps)
TTITLE5=Tramp On Your Street
TTITLE6=K.A.N.D., Corsicana, Texas
TTITLE7=Good Ol' U.S.A.
TTITLE8=The Hottest Thing In Town
TTITLE9=When The Fallen Angels Fly
TTITLE10=Take A Chance On Romance
TTITLE11=Old Chunk Of Coal
TTITLE12=I Want Some More/Tenntex Tear Down
EXTD=Mario´s Musik
EXTT0=
EXTT1=
EXTT2=
EXTT3=
EXTT4=
EXTT5=
EXTT6=
EXTT7=
EXTT8=
EXTT9=
EXTT10=
EXTT11=
EXTT12=
PLAYORDER=
